<?xml version="1.0" encoding="iso-8859-1"?>
<!-- Generator: Adobe Illustrator 21.0.2, SVG Export Plug-In . SVG Version: 6.00 Build 0)  -->
<svg version="1.1" xmlns="http://www.w3.org/2000/svg" xmlns:xlink="http://www.w3.org/1999/xlink" x="0px" y="0px"
	 viewBox="0 0 64 64" style="enable-background:new 0 0 64 64;" xml:space="preserve">
<g id="css">
</g>
<g id="mobile_development">
</g>
<g id="code">
	<g>
		<path d="M60.249,44.3602V15.1133c0-2.7178-2.2109-4.9287-4.9287-4.9287H8.6768c-2.7178,0-4.9287,2.2109-4.9287,4.9287v29.2473
			C2.2027,44.5585,1,45.8676,1,47.4668v3.2031c0,1.7344,1.4111,3.1455,3.1455,3.1455h55.709c1.7344,0,3.1455-1.4111,3.1455-3.1455
			v-3.2031C63,45.8666,61.7958,44.5569,60.249,44.3602z M8.6768,12.1846h46.6436c1.6152,0,2.9287,1.3135,2.9287,2.9287v29.207
			h-2.418V15.999c0-0.5527-0.4473-1-1-1H9.166c-0.5527,0-1,0.4473-1,1v28.3213H5.748v-29.207
			C5.748,13.498,7.0615,12.1846,8.6768,12.1846z M10.166,44.3203V16.999h43.665v27.3213H10.166z M39.7303,46.3203
			c-0.0939,0.8474-0.8065,1.5117-1.6785,1.5117H25.9443c-0.872,0-1.5837-0.6643-1.6776-1.5117H39.7303z M61,50.6699
			c0,0.6318-0.5137,1.1455-1.1455,1.1455H4.1455C3.5137,51.8154,3,51.3018,3,50.6699v-3.2031c0-0.6318,0.5137-1.1465,1.1455-1.1465
			h18.1213c0.099,1.9514,1.703,3.5117,3.6776,3.5117h12.1074c1.9755,0,3.5795-1.5604,3.6785-3.5117h18.1242
			c0.6318,0,1.1455,0.5146,1.1455,1.1465V50.6699z"/>
		<path d="M49.1885,47.9404c-0.4834,0.2686-0.6572,0.877-0.3887,1.3594l0.0098,0.0176c0.1816,0.3271,0.5166,0.5078,0.8643,0.5078
			c0.166,0,0.334-0.041,0.4902-0.1279c0.4834-0.2686,0.6523-0.8857,0.3838-1.3682C50.2803,47.8467,49.6699,47.6709,49.1885,47.9404z
			"/>
		<path d="M52.8125,47.9404c-0.4834,0.2686-0.6572,0.877-0.3887,1.3594l0.0098,0.0176c0.1816,0.3271,0.5166,0.5078,0.8643,0.5078
			c0.166,0,0.334-0.041,0.4902-0.1279c0.4834-0.2686,0.6523-0.8857,0.3838-1.3682C53.9043,47.8467,53.2949,47.6709,52.8125,47.9404z
			"/>
		<path d="M56.3965,47.9609c-0.4717,0.2881-0.6201,0.9033-0.332,1.375l0.0107,0.0176c0.1875,0.3057,0.5107,0.4727,0.8428,0.4727
			c0.1797,0,0.3613-0.0488,0.5264-0.1494c0.4717-0.2881,0.6152-0.9121,0.3271-1.3838S56.8691,47.6729,56.3965,47.9609z"/>
		<path d="M22.7168,31.7813c-0.2725,0.2451-0.6289,0.3799-1.002,0.3799c-0.8301,0-1.5049-0.6748-1.5049-1.5049
			s0.6748-1.5049,1.5049-1.5049c0.373,0,0.7285,0.1348,1.001,0.3799c0.4102,0.3682,1.042,0.3379,1.4121-0.0742
			c0.3691-0.4102,0.3359-1.043-0.0742-1.4121c-0.6396-0.5762-1.4707-0.8936-2.3389-0.8936c-1.9326,0-3.5049,1.5723-3.5049,3.5049
			s1.5723,3.5049,3.5049,3.5049c0.8672,0,1.6982-0.3164,2.3379-0.8916c0.4111-0.3691,0.4453-1.002,0.0762-1.4121
			C23.7588,31.4453,23.125,31.4131,22.7168,31.7813z"/>
		<path d="M28.4805,27.1514c-1.752,0-3.1768,1.5723-3.1768,3.5049s1.4248,3.5049,3.1768,3.5049s3.1768-1.5723,3.1768-3.5049
			S30.2324,27.1514,28.4805,27.1514z M28.4805,32.1611c-0.6377,0-1.1768-0.6895-1.1768-1.5049s0.5391-1.5049,1.1768-1.5049
			s1.1768,0.6895,1.1768,1.5049S29.1182,32.1611,28.4805,32.1611z"/>
		<path d="M35.0332,27.1514h-0.8965c-0.5527,0-1,0.4473-1,1v5.0098c0,0.5527,0.4473,1,1,1h0.8965
			c1.9346,0,3.5088-1.5723,3.5088-3.5049S36.9678,27.1514,35.0332,27.1514z M35.1367,32.1572v-3.002
			c0.7842,0.0527,1.4053,0.7061,1.4053,1.501S35.9209,32.1045,35.1367,32.1572z"/>
		<path d="M43.4893,29.1514c0.5527,0,1-0.4473,1-1s-0.4473-1-1-1h-2.3945c-0.5527,0-1,0.4473-1,1v5.0098c0,0.5527,0.4473,1,1,1
			h2.3945c0.5527,0,1-0.4473,1-1s-0.4473-1-1-1h-1.3945v-0.5049h1.3945c0.5527,0,1-0.4473,1-1s-0.4473-1-1-1h-1.3945v-0.5049
			H43.4893z"/>
		<path d="M14.1348,30.6533l4.251-4.624c0.374-0.4063,0.3467-1.0391-0.0596-1.4131c-0.4063-0.373-1.0381-0.3477-1.4131,0.0596
			l-4.873,5.3008c-0.3516,0.3828-0.3516,0.9707,0,1.3535l4.873,5.3008c0.1973,0.2148,0.4668,0.3232,0.7363,0.3232
			c0.2422,0,0.4844-0.0869,0.6768-0.2637c0.4063-0.374,0.4336-1.0068,0.0596-1.4131L14.1348,30.6533z"/>
		<path d="M51.9297,29.9766l-4.874-5.3008c-0.374-0.4072-1.0059-0.4326-1.4131-0.0596c-0.4063,0.374-0.4336,1.0068-0.0596,1.4131
			l4.252,4.624l-4.252,4.624c-0.374,0.4063-0.3467,1.0391,0.0596,1.4131c0.1924,0.1768,0.4346,0.2637,0.6768,0.2637
			c0.2695,0,0.5391-0.1084,0.7363-0.3232l4.874-5.3008C52.2813,30.9473,52.2813,30.3594,51.9297,29.9766z"/>
	</g>
</g>
<g id="hardware_programming">
</g>
<g id="python">
</g>
<g id="development">
</g>
<g id="update">
</g>
<g id="maintenance">
</g>
<g id="peformance_testing">
</g>
<g id="programming">
</g>
<g id="hacker">
</g>
<g id="web_programming">
</g>
<g id="html">
</g>
<g id="typing">
</g>
<g id="search_1_">
</g>
<g id="android">
</g>
<g id="coding">
</g>
<g id="file">
</g>
<g id="api">
</g>
<g id="java">
</g>
<g id="xml">
</g>
<g id="security">
</g>
<g id="algorithm">
</g>
<g id="php">
</g>
<g id="eror">
</g>
<g id="bug">
</g>
<g id="c_x2B__x2B_">
</g>
<g id="search">
</g>
<g id="binary">
</g>
<g id="database_sql">
</g>
</svg>
